<svg xmlns="http://www.w3.org/2000/svg" viewBox="1570 1078 34 34"><defs><style>.a{fill:#53507e;}.b{fill:#fff;}</style></defs><g transform="translate(1570 1078)"><path class="a" d="M17,34A17,17,0,1,0,0,17,16.986,16.986,0,0,0,17,34"/><path class="b" d="M22.2,8.5H11.8a3.329,3.329,0,0,0-3.3,3.3V22.3a3.329,3.329,0,0,0,3.3,3.3H22.2a3.329,3.329,0,0,0,3.3-3.3V11.8A3.329,3.329,0,0,0,22.2,8.5Zm1,2h.4v2.9H20.7V10.5Zm-8.6,4.8A2.813,2.813,0,0,1,17,14a2.98,2.98,0,0,1,2.4,1.2,2.716,2.716,0,0,1,.6,1.7,3,3,0,1,1-6,0A2.66,2.66,0,0,1,14.6,15.3Zm9.3,6.9a1.58,1.58,0,0,1-1.6,1.6H11.8a1.58,1.58,0,0,1-1.6-1.6v-7h2.5a4.7,4.7,0,1,0,8.8,0H24v7Z"/></g></svg>