<svg xmlns="http://www.w3.org/2000/svg" viewBox="591.708 297.5 149.792 34"><defs><style>.a{fill:#fff;stroke:rgba(0,0,0,0);stroke-width:1px;}.b{fill:none;stroke:#fff;stroke-width:2px;}</style></defs><g transform="translate(502 267)"><path class="a" d="M2.6-12.35a1.644,1.644,0,0,1,.143-.715,1.8,1.8,0,0,1,.39-.533,4.188,4.188,0,0,1,.559-.442q.312-.208.65-.416a13.942,13.942,0,0,1,1.287-.728,3.269,3.269,0,0,1,1.443-.286q.546,0,.962.013a1.5,1.5,0,0,1,.858.351,1.6,1.6,0,0,1,.507.624,2.138,2.138,0,0,1,.143.832,1.8,1.8,0,0,1-.091.546,1.828,1.828,0,0,1-.26.52,1.33,1.33,0,0,1-.416.377,1.046,1.046,0,0,1-.533.143.681.681,0,0,1-.455-.143,3.414,3.414,0,0,1-.312-.3,3.414,3.414,0,0,0-.312-.3.641.641,0,0,0-.429-.143,3.779,3.779,0,0,0-.689.065,2.131,2.131,0,0,0-.637.221,1.482,1.482,0,0,0-.468.39.9.9,0,0,0-.182.572.48.48,0,0,0,.208.442,1.4,1.4,0,0,0,.507.182q.3.052.637.1a1.893,1.893,0,0,1,.624.208q.7.364,1.209.65T9.1-9.386q.234.13.416.221T9.867-9q.169.078.351.182a3.637,3.637,0,0,1,.416.286,6.63,6.63,0,0,1,1.209,1.209,2.61,2.61,0,0,1,.455,1.6v.6a1.428,1.428,0,0,0,.1.559,1.5,1.5,0,0,1,.1.585,1.591,1.591,0,0,1-.221.884,6.434,6.434,0,0,0-.429.78.6.6,0,0,0,0,.351.3.3,0,0,1-.078.3.656.656,0,0,1-.338.442A1.209,1.209,0,0,0,11-.858q-.234.208-.442.364t-.416.3q-.208.143-.429.273T9.178.364a4.249,4.249,0,0,1-.884.4q-.39.117-.91.247a.778.778,0,0,0-.312.169.486.486,0,0,1-.338.117,1.326,1.326,0,0,1-.364-.039.992.992,0,0,0-.286-.039,1.9,1.9,0,0,0-.611.078,1.7,1.7,0,0,1-.559.078.518.518,0,0,1-.325-.091.873.873,0,0,0-.325-.143,1.284,1.284,0,0,0-.507-.091,2.158,2.158,0,0,1-.507-.039A.661.661,0,0,1,2.782.845,3.277,3.277,0,0,0,2.314.494,2.329,2.329,0,0,0,1.768.273a1.233,1.233,0,0,1-.546-.351.527.527,0,0,1-.312-.4,1.443,1.443,0,0,0-.182-.533A6.629,6.629,0,0,0,.364-1.7,1.471,1.471,0,0,1,.208-2.47,1.778,1.778,0,0,1,.78-3.783a1.9,1.9,0,0,1,1.378-.559,2.065,2.065,0,0,1,.936.221.708.708,0,0,1,.442.663.543.543,0,0,1-.039.234.4.4,0,0,0-.039.182.467.467,0,0,0,.078.286.38.38,0,0,1,.078.234.4.4,0,0,1-.039.143.4.4,0,0,0-.039.143,1.062,1.062,0,0,0,.208.663,1.868,1.868,0,0,0,.533.468,2.444,2.444,0,0,0,.741.286,3.883,3.883,0,0,0,.832.091,3.034,3.034,0,0,0,1.521-.39,4.514,4.514,0,0,0,1.235-1.04,3.863,3.863,0,0,0,.52-.7,1.812,1.812,0,0,0,.208-.91,1.16,1.16,0,0,0-.156-.585,1.114,1.114,0,0,1-.156-.559q0-.13.039-.143A.06.06,0,0,0,9.1-5.122a1.06,1.06,0,0,0-.221-.689,2.179,2.179,0,0,0-.559-.481,6.582,6.582,0,0,0-.741-.39q-.4-.182-.793-.39a.387.387,0,0,1-.169-.182.364.364,0,0,0-.2-.182,1.3,1.3,0,0,0-.52-.143A.8.8,0,0,1,5.408-7.8a.792.792,0,0,1-.286-.273,1,1,0,0,0-.286-.3,1.461,1.461,0,0,0-.507-.143,1,1,0,0,1-.507-.221q-.156-.182-.273-.312a1.521,1.521,0,0,1-.221-.338A1.574,1.574,0,0,0,2.821-9.8a.563.563,0,0,1-.3-.546V-11A1.9,1.9,0,0,0,2.5-11.31a2.059,2.059,0,0,1-.026-.338.462.462,0,0,1,.026-.169.462.462,0,0,0,.026-.169.56.56,0,0,1,.039-.221A.4.4,0,0,0,2.6-12.35Zm13.234-2.262h.286a1.309,1.309,0,0,1,.533.156,1.572,1.572,0,0,0,.689.156l.728-.234h1.508a.386.386,0,0,1,.39.26.579.579,0,0,1,.052.26,1.389,1.389,0,0,1-.156.767.7.7,0,0,1-.4.286,2.507,2.507,0,0,1-.52.078,1.515,1.515,0,0,0-.52.117.825.825,0,0,0-.4.4,2.16,2.16,0,0,0-.156.949,3.189,3.189,0,0,0,.1.65,3.189,3.189,0,0,1,.1.65v.728a1.346,1.346,0,0,0,.338.91,1.114,1.114,0,0,0,.884.39.8.8,0,0,0,.364-.078.33.33,0,0,0,.156-.078l.936.156H21.97a3.351,3.351,0,0,1,.416.026.918.918,0,0,1,.6.26.56.56,0,0,0,.221-.039.4.4,0,0,1,.143-.039,1.366,1.366,0,0,0,.208-.13.316.316,0,0,1,.156-.078h1.014a1.506,1.506,0,0,0,.286-.325.717.717,0,0,0,.13-.4v-2.028l-.286-1.3v-.442a.384.384,0,0,0-.182-.364,2.684,2.684,0,0,0-.39-.182,1.457,1.457,0,0,1-.39-.221.647.647,0,0,1-.182-.533.78.78,0,0,1,.312-.585,1.038,1.038,0,0,1,.7-.273q.338.13.7.234.312.078.689.143a4.506,4.506,0,0,0,.767.065H27.9a3.211,3.211,0,0,1,.6.065,2.208,2.208,0,0,1,.611.208,1.445,1.445,0,0,1,.468.39A1,1,0,0,1,29.77-13l-.13.286-.6.13h-.7q-.182,0-.455.338a1.009,1.009,0,0,0-.273.6v2.756a4.458,4.458,0,0,0,.065.572,4.422,4.422,0,0,1,.065.6.466.466,0,0,1-.078.234,1.819,1.819,0,0,0-.13.26,1.585,1.585,0,0,0-.13.494v1.456a4.282,4.282,0,0,0,.065.754,3.993,3.993,0,0,1,.065.7,1.654,1.654,0,0,1-.065.442,2.166,2.166,0,0,0-.065.572,1.234,1.234,0,0,1-.026.286,1.755,1.755,0,0,0-.039.208.942.942,0,0,0,0,.221,1.9,1.9,0,0,0,.065.3.811.811,0,0,0,.455.481,6.842,6.842,0,0,0,.806.351q.429.156.767.312t.338.364a.4.4,0,0,1-.117.3,3,3,0,0,1-.247.221,3.4,3.4,0,0,1-.364.208H26.156L24.934.156l-.728.286q-.078,0-.234-.013A1.954,1.954,0,0,1,23.66.377a.637.637,0,0,1-.273-.143.4.4,0,0,1-.117-.312.55.55,0,0,1,.26-.468q.26-.182.572-.416a2.826,2.826,0,0,0,.572-.585,1.609,1.609,0,0,0,.26-.975V-5.486a1.037,1.037,0,0,0-.143-.455q-.143-.273-.351-.273H22.776a1.474,1.474,0,0,1-.52-.143,1.47,1.47,0,0,0-.494-.143h-2.47a1.523,1.523,0,0,0-.884.234.881.881,0,0,0-.338.78v1.664q-.156.442-.182.533a.934.934,0,0,0-.026.247.958.958,0,0,0,.1.4,1.244,1.244,0,0,1,.1.533.545.545,0,0,0,.091.637A3.23,3.23,0,0,0,18.772-1l.7.429a.59.59,0,0,1,.338.494q0,.078-.117.169a.908.908,0,0,1-.273.143q-.156.052-.312.091a1.067,1.067,0,0,1-.234.039A1.325,1.325,0,0,1,18.525.3Q18.3.234,18.031.143a5.212,5.212,0,0,0-.585-.156,2.933,2.933,0,0,0-.6-.065,1.819,1.819,0,0,1-.26.13,1.607,1.607,0,0,1-.247.078,1.02,1.02,0,0,1-.221.026H14.664a1.537,1.537,0,0,1-.715-.182A.645.645,0,0,1,13.6-.65a2.59,2.59,0,0,1,.091-.676.441.441,0,0,1,.481-.338l.494-.13a.7.7,0,0,0,.468-.286.806.806,0,0,0,.26-.442V-4.264a2.958,2.958,0,0,0-.143-.7,3.722,3.722,0,0,1-.143-1.04V-7.228a1.873,1.873,0,0,1,.039-.286q.039-.208.1-.442t.1-.442a1.873,1.873,0,0,0,.039-.286l-.286-1.222a1.615,1.615,0,0,1,.13-.546q.078-.182.156-.39v-1.742q0-.182-.3-.286a4.275,4.275,0,0,0-.676-.169q-.377-.065-.676-.13t-.3-.143a1.31,1.31,0,0,1,.3-.858.837.837,0,0,1,.637-.364l1.3-.078Zm24.154-.7a1.283,1.283,0,0,1,.858.247,1.323,1.323,0,0,1,.4.637,4.179,4.179,0,0,1,.156.845q.039.455.091.871v.936q.156.286.4.767a2.114,2.114,0,0,1,.247.975v.65a2.5,2.5,0,0,0,.13.468q.13.39.3.858t.3.9a2.5,2.5,0,0,1,.13.585,8.809,8.809,0,0,0,.13,1.313,15.837,15.837,0,0,0,.338,1.6,7.85,7.85,0,0,0,.481,1.352q.273.572.585.572a1.68,1.68,0,0,1,.572.078,1.06,1.06,0,0,0,.364.078,2.425,2.425,0,0,1,.273.026,2.084,2.084,0,0,1,.416.1,1.084,1.084,0,0,1,.377.221.487.487,0,0,1,.156.377.767.767,0,0,1-.364.728,1.7,1.7,0,0,1-.858.208L43.732,0h-2.6L40.4.078q-.156,0-.507-.026t-.351-.208a.709.709,0,0,1,.325-.6,3.031,3.031,0,0,1,.767-.39,3.1,3.1,0,0,0,.611-.286.567.567,0,0,0,.247-.52,2.768,2.768,0,0,0-.065-.39q-.065-.312-.156-.663a4.38,4.38,0,0,0-.208-.624Q40.95-3.9,40.846-3.9a3.506,3.506,0,0,1-.117-.572,4.31,4.31,0,0,0-.1-.559.754.754,0,0,0-.208-.377.484.484,0,0,0-.429-.078H38.805a4.121,4.121,0,0,0-.455.026q-.234.026-.455.065a.575.575,0,0,0-.3.117.387.387,0,0,0-.273.455,2.994,2.994,0,0,1,.065.637,3.391,3.391,0,0,0-.234.4q-.156.3-.3.637t-.247.624a1.526,1.526,0,0,0-.1.364.524.524,0,0,0,.169.442,3.151,3.151,0,0,0,.377.247,1.323,1.323,0,0,1,.377.325,1.127,1.127,0,0,1,.169.7.311.311,0,0,1-.1.247.615.615,0,0,1-.247.13,1.655,1.655,0,0,1-.286.052Q36.816,0,36.738,0a.1.1,0,0,1-.052.1.324.324,0,0,1-.143.026A.451.451,0,0,1,36.3,0h-.273a2.483,2.483,0,0,1-.351-.026L35.2-.078A1.585,1.585,0,0,0,34.658,0a1.585,1.585,0,0,1-.546.078,2.408,2.408,0,0,0-.52.039.88.88,0,0,0-.221.078A.5.5,0,0,0,33.28.26a.151.151,0,0,1-.1.026q-.13,0-.455-.026a6.077,6.077,0,0,1-.663-.091,2.449,2.449,0,0,1-.585-.182q-.247-.117-.247-.273a1.211,1.211,0,0,1,.3-.832,1.007,1.007,0,0,1,.793-.338l.494-.13a.491.491,0,0,0,.195-.091,2.921,2.921,0,0,0,.3-.221l.325-.273q.169-.143.273-.221a6.207,6.207,0,0,1,.559-1.417q.4-.767.741-1.469a7.48,7.48,0,0,1,.4-.923q.247-.481.455-.819a9.338,9.338,0,0,0,.442-.962q.182-.468.338-.949t.338-.975q.182-.494.416-1.014a4.211,4.211,0,0,0,.286-.845q.1-.455.195-.936t.234-.975a6.585,6.585,0,0,1,.377-.988q.156-.13.338-.312a1.8,1.8,0,0,1,.52-.338Zm-.312,4.758a.431.431,0,0,0-.325.156,1.7,1.7,0,0,0-.247.351,1.832,1.832,0,0,0-.156.39,1.261,1.261,0,0,0-.052.273v.351a.758.758,0,0,1-.026.208q-.026.091-.065.247t-.117.494v.208q0,.156.234.3a.823.823,0,0,0,.416.143h.247a2.22,2.22,0,0,0,.338-.026.816.816,0,0,0,.3-.1.255.255,0,0,0,.13-.234.7.7,0,0,0-.182-.52.524.524,0,0,1-.182-.364V-9.828a1.585,1.585,0,0,0-.091-.442Q39.806-10.556,39.676-10.556ZM52.7-14.378a1.669,1.669,0,0,1,.3.026,3.052,3.052,0,0,0,.338.039q.2.013.468.039t.715.026l.858-.208q.208-.052.39-.1a2.053,2.053,0,0,1,.312-.078,1.564,1.564,0,0,1,.234-.026,1.114,1.114,0,0,1,.455.13,2.821,2.821,0,0,1,.481.286,2.2,2.2,0,0,1,.234.806,2.609,2.609,0,0,0,.208.806,1.138,1.138,0,0,1,.182.3q.1.221.208.429a4.175,4.175,0,0,0,.26.572q0,.494-.65.494a.927.927,0,0,1-.468-.247,7.968,7.968,0,0,0-.806-.546,6.712,6.712,0,0,0-1.17-.546,4.7,4.7,0,0,0-1.612-.247l-.494.13a3.239,3.239,0,0,1-.3.39.436.436,0,0,0-.143.26v.234q-.052.208-.1.39a2.054,2.054,0,0,0-.078.312,1.565,1.565,0,0,0-.026.234v1.872a1.8,1.8,0,0,0,.156.741.517.517,0,0,0,.494.351,2.111,2.111,0,0,0,.26-.026,3.875,3.875,0,0,0,.39-.078q.234-.052.494-.1h.52a.7.7,0,0,0,.377-.1q.169-.1.325-.221t.3-.221a.5.5,0,0,1,.3-.1.285.285,0,0,1,.182.1,2.837,2.837,0,0,1,.208.234l.26.312v1.716q0,.728-.65.728a.992.992,0,0,1-.494-.117,2.423,2.423,0,0,1-.364-.247,2.262,2.262,0,0,1-.481-.234.848.848,0,0,0-.481-.13h-.936q-.65,0-.832.234a1.649,1.649,0,0,0-.182.936v.65a5.259,5.259,0,0,1,.1.728,5.1,5.1,0,0,0,.091.676,1.212,1.212,0,0,0,.247.533.954.954,0,0,0,.572.3h1.456a2.521,2.521,0,0,0,.793-.143,5.755,5.755,0,0,0,.871-.377q.442-.156.819-.286a2.131,2.131,0,0,1,.689-.13,1.953,1.953,0,0,1,.208.182l.156.156a.225.225,0,0,1,.078.156.518.518,0,0,1-.13.338,2.647,2.647,0,0,1-.312.312,2.155,2.155,0,0,0-.52.689q-.156.351-.3.65a1.633,1.633,0,0,1-.351.494.883.883,0,0,1-.624.2A.992.992,0,0,1,55.9.247a2.169,2.169,0,0,1-.273-.1,1.557,1.557,0,0,0-.338-.1A2.5,2.5,0,0,0,54.808,0L52.286.078,51.4.286H49.244l-.52.156-.78.052a.527.527,0,0,1-.286-.1,1.541,1.541,0,0,1-.286-.247,2.118,2.118,0,0,1-.221-.286.47.47,0,0,1-.091-.221q0-.65.962-.65a4.33,4.33,0,0,0,.416-.182,5.016,5.016,0,0,1,.65-.26,1.258,1.258,0,0,0,.741-.338,1.943,1.943,0,0,0,.195-1.092.511.511,0,0,1,.091-.273q.091-.143-.091-.3A1.527,1.527,0,0,0,50-3.731,1.414,1.414,0,0,0,49.92-4q-.052-.156-.1-.338v-2.08l.208-1.82v-.442a.378.378,0,0,1,.039-.208A.378.378,0,0,0,50.1-9.1v-2.886a.426.426,0,0,0-.26-.377.935.935,0,0,0-.39-.143h-.728a.751.751,0,0,1-.715-.416,2.02,2.02,0,0,1-.221-.962.382.382,0,0,1,.143-.286.441.441,0,0,1,.3-.13h1.378a4.475,4.475,0,0,0,.481-.039,7.085,7.085,0,0,1,.819-.039Zm16.536,0a7.956,7.956,0,0,1,2.626.442,7.378,7.378,0,0,1,2.275,1.261,6.123,6.123,0,0,1,1.6,2,5.766,5.766,0,0,1,.6,2.639l-.208,1.248V-5.07a1.205,1.205,0,0,1-.156.494,1.227,1.227,0,0,0-.156.52q-.156.338-.286.676-.13.286-.286.611a3.921,3.921,0,0,1-.364.611,2.043,2.043,0,0,1-.351.468,4.048,4.048,0,0,1-.572.494,4.015,4.015,0,0,1-.663.39,1.549,1.549,0,0,1-.65.156H72.15a2.166,2.166,0,0,0-.572.078q-.286.078-.559.169t-.481.169a1.011,1.011,0,0,1-.286.078h-.7a2.266,2.266,0,0,0-.767.117,1.7,1.7,0,0,1-.559.117H64.61q-.156.078-.286.156a1.107,1.107,0,0,1-.494.13L63.1.078h-.728l-.7.286a1.064,1.064,0,0,1-.481-.169,2.229,2.229,0,0,1-.481-.351q-.1,0-.312-.013a1.581,1.581,0,0,1-.4-.078.968.968,0,0,1-.351-.208.519.519,0,0,1-.156-.4.547.547,0,0,1,.182-.39,1.866,1.866,0,0,1,.416-.312q.286-.156.624-.312h.728l1.222-.286q.208.078.39.156a1.652,1.652,0,0,0,.572.13.5.5,0,0,0,.4-.169,1.049,1.049,0,0,0,.208-.4,2.23,2.23,0,0,0,.078-.481q.013-.247.013-.4V-4.914a.8.8,0,0,0-.1-.312,1.7,1.7,0,0,0-.1-.182V-7.02a1.711,1.711,0,0,1,.1-.52,2.213,2.213,0,0,0,.1-.7v-2.236a2.69,2.69,0,0,0-.234-1.183.987.987,0,0,0-.988-.481.747.747,0,0,0-.26.039q-.1.039-.195.078a1.286,1.286,0,0,1-.195.065,1.234,1.234,0,0,1-.286.026l-.728-.208h-.494a.925.925,0,0,1-.455-.169q-.273-.169-.273-.325a.814.814,0,0,1,.429-.676,4.444,4.444,0,0,1,.975-.481,6.508,6.508,0,0,1,1.066-.286,5.039,5.039,0,0,1,.7-.091h.442a.62.62,0,0,1,.39.143.62.62,0,0,0,.39.143,2.573,2.573,0,0,0,.39-.13q.156-.052.325-.1a1.033,1.033,0,0,1,.3-.052H67.08q.52-.052.962-.1.364-.052.715-.078T69.238-14.378Zm-1.222,2.522a1.021,1.021,0,0,0-.312.1,2.6,2.6,0,0,0-.481.286,3.229,3.229,0,0,0-.442.39.6.6,0,0,0-.195.39.852.852,0,0,1,.1.13.641.641,0,0,1,.1.364v6.578a1.3,1.3,0,0,1,.13.442q.026.234.065.442a.971.971,0,0,0,.143.364.565.565,0,0,0,.39.208h.286a2.425,2.425,0,0,0,.273-.026q.195-.026.416-.052l.429-.052a2.759,2.759,0,0,1,.312-.026,3.646,3.646,0,0,0,1.885-.507A4.2,4.2,0,0,0,72.384-4.03a5.335,5.335,0,0,0,.728-1.56,6.661,6.661,0,0,0,.26-1.56,3.73,3.73,0,0,0-.26-1.378,8.167,8.167,0,0,0-.7-1.5,4.335,4.335,0,0,0-.858-1.066q-.442-.377-.7-.117-.156-.1-.286-.208-.13-.078-.247-.156a.379.379,0,0,0-.195-.078h-.234Zm23.478-2.808a2.043,2.043,0,0,1,.4.052q.247.052.481.117t.4.13q.169.065.169.117a1.311,1.311,0,0,1-.338.949,1.172,1.172,0,0,1-.884.351h-.806a.94.94,0,0,0-.546.13,1.073,1.073,0,0,0-.3.325,1.42,1.42,0,0,0-.169.468,5.311,5.311,0,0,1-.13.533,3.656,3.656,0,0,0-.234.312.832.832,0,0,1-.286.26,1.877,1.877,0,0,1-.247.338,2.59,2.59,0,0,0-.247.312q-.156.286-.455.871t-.585,1.3a14.92,14.92,0,0,0-.494,1.443,4.794,4.794,0,0,0-.208,1.3v.936l-.13.728q0,.078.026.325A4.873,4.873,0,0,0,87-2.873a2.677,2.677,0,0,0,.13.442q.078.195.182.195a3.526,3.526,0,0,0,.754.247q.572.143,1.183.338a7.559,7.559,0,0,1,1.079.429q.468.234.468.494a.967.967,0,0,1-.026.234.246.246,0,0,1-.26.208A1.764,1.764,0,0,1,90.1,0a.889.889,0,0,0-.325.286A.192.192,0,0,0,89.609.4q-.065.117-.13.247A1.137,1.137,0,0,1,89.31.9a.333.333,0,0,1-.26.117,1.4,1.4,0,0,1-.533-.143,1.692,1.692,0,0,0-.689-.143H86.086A3.351,3.351,0,0,1,85.67.7q-.182-.026-.4-.065a1.239,1.239,0,0,1-.4-.143h-1.17a1.378,1.378,0,0,0-.65.117,1.378,1.378,0,0,1-.65.117h-.442A2.129,2.129,0,0,1,80.743.494a1.15,1.15,0,0,1-.3-.936,1.8,1.8,0,0,1,.234-.871.818.818,0,0,1,.78-.429l1.222.286a1.024,1.024,0,0,0,.377-.091,1.693,1.693,0,0,0,.39-.221.777.777,0,0,0,.247-.312.507.507,0,0,0,0-.39l-.286-2.886a3.672,3.672,0,0,0-.026-.429.649.649,0,0,1,.1-.429.775.775,0,0,0-.078-.325.775.775,0,0,1-.078-.325,1.777,1.777,0,0,0-.273-.975,5.149,5.149,0,0,0-.871-.975,1.867,1.867,0,0,0-.689-.728q-.507-.338-1.053-.728a3.317,3.317,0,0,0-.468-.754,3.317,3.317,0,0,1-.468-.754.919.919,0,0,0-.338-.182,1.552,1.552,0,0,1-.39-.182,9.545,9.545,0,0,0-1.014-.208,1.722,1.722,0,0,1-.689-.481,1.248,1.248,0,0,1-.247-.819,1.265,1.265,0,0,1,.195-.728.837.837,0,0,1,.741-.286h1.248a1.784,1.784,0,0,1,.7.143,1.474,1.474,0,0,0,.52.143h1.222a2.768,2.768,0,0,1,.286.026q.208.026.455.039t.507.039q.26.026.416.026h.572q.182,0,.208.039a.637.637,0,0,1,.026.247.589.589,0,0,1-.156.39q-.156.182-.325.4t-.325.455a.876.876,0,0,0-.156.494,1.453,1.453,0,0,0,.286.728,9.583,9.583,0,0,0,.65.884q.416.494.962,1.066a.825.825,0,0,0,.052.234q.052.156.117.312a1.183,1.183,0,0,0,.156.273q.091.117.169.117.182,0,.364-.26a3.868,3.868,0,0,0,.338-.6q.156-.338.286-.637a1,1,0,0,1,.234-.377.9.9,0,0,1,.156-.364q.156-.26.351-.559t.351-.6a1.148,1.148,0,0,0,.156-.507q0-.156-.208-.26t-.442-.247a2.382,2.382,0,0,1-.442-.351.809.809,0,0,1-.208-.6.221.221,0,0,1,.117-.182,1.094,1.094,0,0,1,.286-.13,2.378,2.378,0,0,1,.338-.078,1.881,1.881,0,0,1,.273-.026,2.4,2.4,0,0,0,.286.078q.13.026.247.039a1.823,1.823,0,0,0,.195.013h.494a3.257,3.257,0,0,1,.676-.117q.286-.013.988-.013a1.957,1.957,0,0,0,.429-.039,1.1,1.1,0,0,0,.286-.1,1.242,1.242,0,0,1,.247-.1A1.206,1.206,0,0,1,91.494-14.664Zm9.828-.286a.873.873,0,0,1,.585.169,1.1,1.1,0,0,1,.3.429,1.636,1.636,0,0,1,.117.533q.013.273.013.455v.494a3.053,3.053,0,0,1-.533,1.092,1.172,1.172,0,0,1-.975.494,1.716,1.716,0,0,1-.832-.247,1.99,1.99,0,0,0-.988-.247,1.865,1.865,0,0,0-1.118.4,5.378,5.378,0,0,0-.988.949,5.828,5.828,0,0,0-.715,1.1,2.189,2.189,0,0,0-.273.871v1.716a9.058,9.058,0,0,0,.1,1.066,10.575,10.575,0,0,0,.338,1.547,5.772,5.772,0,0,0,.611,1.4,1.1,1.1,0,0,0,.949.611l.52-.208a4.2,4.2,0,0,0,1.118-.143,2.175,2.175,0,0,0,.962-.585,6.9,6.9,0,0,1,1.092-1.066.9.9,0,0,1,.364-.182,1.528,1.528,0,0,1,.364-.052,1.519,1.519,0,0,1,.13.156.642.642,0,0,1,.156.364,2.759,2.759,0,0,1-.416,1.313,8.151,8.151,0,0,1-1,1.4,8.5,8.5,0,0,1-1.2,1.131,1.832,1.832,0,0,1-1,.468H98.8q-.364.078-.676.156-.286.052-.546.1a2.191,2.191,0,0,1-.364.052,1.488,1.488,0,0,1-.585-.182q-.377-.182-.793-.429a6.389,6.389,0,0,1-.754-.52,1.293,1.293,0,0,1-.416-.481,1.4,1.4,0,0,1-.273-.507q-.169-.429-.338-.962t-.286-1.053a3.921,3.921,0,0,1-.117-.78v-.806Q93.574-5.07,93.5-5.2a1.031,1.031,0,0,1-.13-.442,6.056,6.056,0,0,1,.13-.6q.052-.234.1-.494a2.237,2.237,0,0,0,.052-.416v-.572a.5.5,0,0,0-.052-.2q-.052-.117-.1-.247a1.437,1.437,0,0,1-.13-.286l.286-.806V-9.75q.208-.442.39-.806.156-.312.325-.6a2.17,2.17,0,0,1,.3-.416,1.855,1.855,0,0,1,.39-.884,4.543,4.543,0,0,1,.741-.728,7.818,7.818,0,0,1,.923-.624l.988-.572q.286-.052.572-.13.208-.052.429-.1a1.622,1.622,0,0,1,.3-.052h1.508ZM114.4-9.022a1.7,1.7,0,0,1-.1-.182.81.81,0,0,1-.1-.338v-1.222l-.234-1.456v-.494a.38.38,0,0,0-.182-.377,1.9,1.9,0,0,0-.39-.143q-.286-.052-.507-.1a.28.28,0,0,1-.221-.312,1.057,1.057,0,0,1,.1-.455,2.507,2.507,0,0,1,.247-.416,1.228,1.228,0,0,1,.325-.312.635.635,0,0,1,.338-.117,4.221,4.221,0,0,0,.728.286,3.725,3.725,0,0,0,.7.208,3.843,3.843,0,0,0,.754.078h1.014a3.211,3.211,0,0,0,.6-.065,2.745,2.745,0,0,1,.637-.052.839.839,0,0,1,.507.182.83.83,0,0,1,.208.663,2.8,2.8,0,0,1,.1.494,2,2,0,0,1,.013.39.336.336,0,0,1-.117.26h-1.248a.579.579,0,0,0-.507.325,1.318,1.318,0,0,0-.195.689,3.227,3.227,0,0,0-.156.624.778.778,0,0,0,.026.364.35.35,0,0,0,.13.234l-.312.936a1.2,1.2,0,0,1,.169.429,4.008,4.008,0,0,0,.091.4q.026.234.052.416a.825.825,0,0,1-.052.234q-.052.156-.1.338l-.1.364a1.115,1.115,0,0,0-.052.286v.494a1.634,1.634,0,0,1-.026.26,3.083,3.083,0,0,1-.078.338l-.1.416a.947.947,0,0,0,.052.325q.052.143.1.273a.546.546,0,0,1,.052.247v.325a1.545,1.545,0,0,1-.052.494.717.717,0,0,0-.156.52,1.2,1.2,0,0,1-.3.741,7.638,7.638,0,0,0-.637.975.721.721,0,0,1-.325.585q-.325.247-.689.585l-.286.325a2.062,2.062,0,0,1-.195.195.844.844,0,0,1-.208.13q-.117.052-.325.13a5.021,5.021,0,0,1-1.69.455q-.832.065-1.2.065-.442,0-.975-.052A7.614,7.614,0,0,1,108.459.78a9.435,9.435,0,0,1-1.027-.312A2.742,2.742,0,0,1,106.6,0l-.52-.728a3.677,3.677,0,0,1-.364-.624q-.156-.338-.286-.624-.156-.338-.286-.7V-4.42A2.08,2.08,0,0,0,105-5.161a2.791,2.791,0,0,1-.143-.975V-7.592q.052-.26.13-.52l.1-.416a1.434,1.434,0,0,0,.052-.286q-.078-.364-.156-.65a4.272,4.272,0,0,1-.13-.806,3.83,3.83,0,0,1,.13-.416q.052-.182.1-.338a.855.855,0,0,0,.052-.26v-1.43q0-.182-.312-.312a4.6,4.6,0,0,0-.689-.221q-.377-.091-.676-.182t-.273-.221a1.05,1.05,0,0,1,.286-.676.839.839,0,0,1,.65-.338l1.248-.286h.494a2.6,2.6,0,0,1,.611.143,2.831,2.831,0,0,0,.845.143h2.158q.364,0,.429.156a.708.708,0,0,1,.065.26,1.453,1.453,0,0,1-.156.793.7.7,0,0,1-.4.286,2.035,2.035,0,0,1-.52.065,1.2,1.2,0,0,0-.52.117.884.884,0,0,0-.4.442,2.6,2.6,0,0,0-.156,1.053,1.824,1.824,0,0,0,.026.247q.026.169.065.364t.078.364a1.241,1.241,0,0,1,.039.247V-3.9q-.156.338-.078.429a.458.458,0,0,1,.078.3l.286.7a4.121,4.121,0,0,0,.494.624,1.992,1.992,0,0,0,.52.377,2.137,2.137,0,0,0,.676.2,7.71,7.71,0,0,0,.988.052,2.236,2.236,0,0,0,.624-.156,6.029,6.029,0,0,0,.832-.364,1.132,1.132,0,0,1,.247-.351,5.3,5.3,0,0,0,.4-.468,6.46,6.46,0,0,0,.507-.78,9.986,9.986,0,0,0,.585-1.287V-5.642q0-.182.026-.676t.065-1.04q.039-.546.078-1.027T114.4-9.022Zm12.714-5.226a1.257,1.257,0,0,1,.689.208.668.668,0,0,1,.325.6v.494q-.286.208-.546.364-.208.13-.416.247a.759.759,0,0,1-.286.117h-.78a1.159,1.159,0,0,0-.858.312,1.159,1.159,0,0,0-.312.858v.78a7.747,7.747,0,0,1-.169,1.534q-.169.832-.325,1.586v3.9a1.643,1.643,0,0,0,.039.273,1.719,1.719,0,0,0,.13.39,1.341,1.341,0,0,0,.221.338.436.436,0,0,0,.338.143H127.4a1.738,1.738,0,0,0,.429-.156q.351-.156.767-.364t.819-.442a4.181,4.181,0,0,0,.585-.39q.208-.182.416-.351a.635.635,0,0,1,.39-.169,1.875,1.875,0,0,1,.221-.429.4.4,0,0,1,.273-.065.983.983,0,0,1,.442.169q.286.169.286.325a3.391,3.391,0,0,1-.221.611q-.221.533-.533,1.2T130.6-.9a2.565,2.565,0,0,1-.676.819q-.078.1-.455.143t-.793.065q-.468.026-1.066.026h-1.222a5.824,5.824,0,0,1-1.092-.1,1.046,1.046,0,0,0-.728.026l-.338.078L122.98.442A2.685,2.685,0,0,1,122.655.4q-.247-.039-.533-.1t-.533-.1a2.685,2.685,0,0,0-.325-.039,1.414,1.414,0,0,0-.39.052,3.272,3.272,0,0,0-.312.1,2.383,2.383,0,0,1-.312.13.619.619,0,0,1-.429-.13A.762.762,0,0,1,119.613,0a1.369,1.369,0,0,1-.078-.364q-.013-.182-.013-.286,0-.546.351-.676a5.744,5.744,0,0,1,.767-.221,2.384,2.384,0,0,0,.767-.312q.351-.221.351-.949V-4.992l.208-1.95v-.936q0-.1.026-.4t.078-.637q.052-.39.13-.832a.708.708,0,0,0-.117-.39.635.635,0,0,1-.117-.338v-.286a1.653,1.653,0,0,0-.221-1,1.584,1.584,0,0,0-.494-.416,2.865,2.865,0,0,1-.494-.325.923.923,0,0,1-.221-.728.867.867,0,0,1,.117-.455,1.265,1.265,0,0,1,.273-.325.974.974,0,0,1,.312-.182.825.825,0,0,1,.234-.052Zm20.8-.936q.078,0,.169.195a3.376,3.376,0,0,1,.169.455q.078.26.13.52a2.191,2.191,0,0,1,.052.364v1.872q0,.1-.013.39a3.5,3.5,0,0,1-.078.585,1.54,1.54,0,0,1-.221.533.478.478,0,0,1-.416.234.876.876,0,0,1-.637-.195,1.163,1.163,0,0,1-.286-.494,4.5,4.5,0,0,1-.143-.65,2.566,2.566,0,0,0-.182-.65,1.173,1.173,0,0,0-.4-.494,1.41,1.41,0,0,0-.819-.195h-1.43a1.751,1.751,0,0,0-.286.026,1.379,1.379,0,0,0-.286.078l-.312.1a1.049,1.049,0,0,0-.845.351,1.3,1.3,0,0,0-.3.871v1.248q0,.208-.013.377a.412.412,0,0,0,.143.325l-.13,1.014v4.212a3.734,3.734,0,0,0,.078.845,1.8,1.8,0,0,0,.208.533,1.68,1.68,0,0,0,.286.351q.156.143.286.273.39.13.7.247a2.153,2.153,0,0,0,.754.117,2.287,2.287,0,0,1,1.17.481,1.1,1.1,0,0,1,.416.728.9.9,0,0,1-.286.7,1.514,1.514,0,0,1-.936.4A1.357,1.357,0,0,1,144,.494q-.221-.078-.429-.13a4.737,4.737,0,0,0-.52-.026q-.286,0-.585-.013a3.979,3.979,0,0,1-.572-.065,1.389,1.389,0,0,1-.481-.182h-2.47a2.906,2.906,0,0,0-.637.143,3.782,3.782,0,0,1-1.079.143q-.416,0-.754-.026-.286-.026-.585-.039t-.4-.013a.247.247,0,0,0-.208.1q-.078.1-.52.1a.294.294,0,0,1-.1-.1.346.346,0,0,1-.078-.117.555.555,0,0,1-.026-.2,4.172,4.172,0,0,1,.26-.572q.13-.234.3-.494a2.875,2.875,0,0,1,.377-.468q.364-.13.676-.234.26-.1.507-.182a1.425,1.425,0,0,1,.325-.078l1.248-.286q.182,0,.286-.247a2.541,2.541,0,0,0,.156-.533,5.387,5.387,0,0,0,.052-.806V-6.578a1.192,1.192,0,0,1,.1-.364l.1-.208v-3.328a2.253,2.253,0,0,1,.039-.416,2.122,2.122,0,0,0,.039-.39.6.6,0,0,0-.078-.234,1.628,1.628,0,0,0-.208-.312,1.494,1.494,0,0,0-.3-.273.608.608,0,0,0-.351-.117H135.2a1.543,1.543,0,0,0-.845.195,1.306,1.306,0,0,0-.455.494,2.632,2.632,0,0,0-.234.65,4.406,4.406,0,0,1-.2.65,1.328,1.328,0,0,1-.325.494.883.883,0,0,1-.624.195.591.591,0,0,1-.559-.3,1.274,1.274,0,0,1-.169-.637,3.1,3.1,0,0,1,.026-.325q.026-.221.065-.455t.078-.442a1.873,1.873,0,0,0,.039-.286l.312-1.248a3.337,3.337,0,0,1,.039-.351,4.243,4.243,0,0,1,.13-.585,2.653,2.653,0,0,1,.221-.546.371.371,0,0,1,.312-.234.951.951,0,0,1,.533.13l.429.286a1.471,1.471,0,0,0,.325.208,1.1,1.1,0,0,0,.455.078,2.528,2.528,0,0,0,.468-.065,2.528,2.528,0,0,1,.468-.065h.52a.416.416,0,0,0,.182.065q.1.013.234.039a1.461,1.461,0,0,0,.286.026h3.926l.7-.13.728.13a10.246,10.246,0,0,0,1.131-.065,10.029,10.029,0,0,1,1.1-.065h1.248a2.466,2.466,0,0,0,.832-.13,5.014,5.014,0,0,0,.637-.273,3.074,3.074,0,0,0,.442-.273A.512.512,0,0,1,147.914-15.184Z" transform="translate(90 55)"/><line class="b" x2="149" transform="translate(90.5 31.5)"/><line class="b" x2="149" transform="translate(90.5 63.5)"/></g></svg>