<svg xmlns="http://www.w3.org/2000/svg" viewBox="1658 1078 34 34"><defs><style>.a{fill:#53507e;}.b{fill:#fff;}</style></defs><g transform="translate(1658 1078)"><path class="a" d="M17,34A17,17,0,1,0,0,17,16.986,16.986,0,0,0,17,34"/><path class="b" d="M25.5,12.6a6.637,6.637,0,0,1-2,.6A3.171,3.171,0,0,0,25,11.3a5.838,5.838,0,0,1-2.2.8A3.315,3.315,0,0,0,20.2,11a3.543,3.543,0,0,0-3.5,3.5,2.2,2.2,0,0,0,.1.8,9.492,9.492,0,0,1-7.2-3.7,3.453,3.453,0,0,0-.5,1.8,3.356,3.356,0,0,0,1.6,2.9,4.193,4.193,0,0,1-1.6-.4h0a3.441,3.441,0,0,0,2.8,3.4,2.769,2.769,0,0,1-.9.1,1.952,1.952,0,0,1-.7-.1,3.362,3.362,0,0,0,3.3,2.4,7.226,7.226,0,0,1-4.3,1.5H8.5a9.9,9.9,0,0,0,15.3-8.3v-.5a5.814,5.814,0,0,0,1.7-1.8"/></g></svg>